<?xml version="1.0" encoding="UTF-8"?>
<svg version="1.1" xmlns="http://www.w3.org/2000/svg" width="100" height="100">
<path d="M0 0 C1.44796747 0.65816703 2.88257753 1.34627579 4.3046875 2.05859375 C7.44112146 3.54755934 10.64285663 4.68103338 13.91796875 5.83203125 C15.71814453 6.46625 15.71814453 6.46625 17.5546875 7.11328125 C18.64394531 7.49484375 19.73320313 7.87640625 20.85546875 8.26953125 C35.66854622 13.48914745 35.66854622 13.48914745 38.85546875 18.26953125 C39.10287783 20.98527742 39.2256377 23.55448234 39.23046875 26.26953125 C39.25496094 26.99398438 39.27945313 27.7184375 39.3046875 28.46484375 C39.33402622 33.76537194 39.33402622 33.76537194 36.95703125 36.26953125 C34.85546875 37.26953125 34.85546875 37.26953125 32.85546875 37.26953125 C32.8711792 37.94008545 32.88688965 38.61063965 32.90307617 39.30151367 C32.96561533 42.35326635 33.00451938 45.40488393 33.04296875 48.45703125 C33.06810547 49.51212891 33.09324219 50.56722656 33.11914062 51.65429688 C33.12880859 52.67587891 33.13847656 53.69746094 33.1484375 54.75 C33.16414795 55.68739014 33.1798584 56.62478027 33.19604492 57.59057617 C32.57899151 62.44428734 29.61388644 65.73907429 26.41796875 69.26953125 C24.43513323 71.48564154 22.52043627 73.69071493 20.66796875 76.01953125 C18.85402328 78.27132562 16.89915096 80.22584904 14.85546875 82.26953125 C13.361208 84.06264415 11.87995772 85.86405313 10.41796875 87.68359375 C7.52782118 90.61709353 5.25959794 91.23528301 1.16796875 91.58203125 C-3.30444385 91.48114976 -9.85116815 90.56289435 -13.14453125 87.26953125 C-16.07796514 86.76769964 -19.02034321 86.36873509 -21.96875 85.96484375 C-25.14453125 85.26953125 -25.14453125 85.26953125 -28.03125 83.7890625 C-32.3611992 81.67569959 -36.66138652 81.18855746 -41.3984375 80.54101562 C-45.98184784 79.80888297 -48.37216923 79.02283081 -51.14453125 75.26953125 C-51.51846868 72.49600537 -51.65975496 70.1298615 -51.60546875 67.36328125 C-51.60455231 66.60156616 -51.60363586 65.83985107 -51.60269165 65.05505371 C-51.59666176 63.44793449 -51.58093391 61.84082618 -51.55615234 60.23388672 C-51.51965558 57.77789771 -51.51513306 55.32341936 -51.515625 52.8671875 C-51.50579258 51.30337242 -51.49413503 49.73956753 -51.48046875 48.17578125 C-51.4782431 47.44339233 -51.47601746 46.71100342 -51.47372437 45.9564209 C-51.40489543 42.24780678 -51.19411195 39.42210325 -49.14453125 36.26953125 C-50.13453125 35.93953125 -51.12453125 35.60953125 -52.14453125 35.26953125 C-53.63807855 32.28243665 -53.45084353 29.23218645 -53.51953125 25.95703125 C-53.56851563 24.64089844 -53.6175 23.32476563 -53.66796875 21.96875 C-53.14453125 18.26953125 -53.14453125 18.26953125 -51.02734375 15.421875 C-47.88631409 13.0767431 -45.42417543 12.12476607 -41.64453125 11.14453125 C-37.28337726 9.99310508 -33.97385672 8.62459765 -30.14453125 6.26953125 C-27.75 5.4609375 -27.75 5.4609375 -25.33203125 4.83203125 C-21.97337451 3.89934666 -19.1611463 2.81979732 -16.14453125 1.08203125 C-10.96967774 -1.6147234 -5.53496834 -1.88531708 0 0 Z M-13.14453125 6.26953125 C-9.79125486 8.50504884 -9.23709468 8.44236653 -5.45703125 7.89453125 C-4.24466797 7.72824219 -4.24466797 7.72824219 -3.0078125 7.55859375 C-2.39292969 7.46320312 -1.77804688 7.3678125 -1.14453125 7.26953125 C-1.14453125 6.60953125 -1.14453125 5.94953125 -1.14453125 5.26953125 C-3.3734412 4.15507627 -4.67508231 4.10472839 -7.14453125 4.08203125 C-7.84578125 4.06785156 -8.54703125 4.05367187 -9.26953125 4.0390625 C-11.38978063 4.10440802 -11.38978063 4.10440802 -13.14453125 6.26953125 Z M-29.14453125 11.26953125 C-25.85368832 13.46342654 -24.05185567 13.96307443 -20.14453125 14.26953125 C-16.8559203 13.42474565 -16.8559203 13.42474565 -14.14453125 12.26953125 C-19.62842743 8.61360046 -22.97945429 9.2145056 -29.14453125 11.26953125 Z M0.85546875 12.26953125 C5.54055135 14.75848138 8.80663115 14.27929877 13.85546875 13.26953125 C14.18546875 12.60953125 14.51546875 11.94953125 14.85546875 11.26953125 C12.05389427 10.33567309 10.20099072 10.1059853 7.29296875 10.08203125 C6.50792969 10.06785156 5.72289062 10.05367187 4.9140625 10.0390625 C2.63111425 10.07785616 2.63111425 10.07785616 0.85546875 12.26953125 Z M-43.14453125 17.26953125 C-39.85048131 19.50673136 -39.85048131 19.50673136 -36.14453125 20.26953125 C-33.79028325 19.68096925 -31.45110139 19.02360226 -29.14453125 18.26953125 C-29.47453125 17.60953125 -29.80453125 16.94953125 -30.14453125 16.26953125 C-32.12953572 15.7241351 -32.12953572 15.7241351 -34.45703125 15.51953125 C-35.23691406 15.4215625 -36.01679687 15.32359375 -36.8203125 15.22265625 C-39.44586693 15.27560861 -40.90926882 15.93962683 -43.14453125 17.26953125 Z M-13.14453125 17.26953125 C-10.68226671 19.73179579 -9.58981805 19.96328353 -6.14453125 20.26953125 C-2.40901096 19.40523539 -2.40901096 19.40523539 0.85546875 18.26953125 C-2.84848231 14.56558019 -8.89003476 14.25592957 -13.14453125 17.26953125 Z M15.85546875 17.26953125 C18.5029829 19.9170454 20.15307971 19.98473209 23.85546875 20.26953125 C27.1440797 19.42474565 27.1440797 19.42474565 29.85546875 18.26953125 C25.8249334 14.2389959 20.64919204 14.80003743 15.85546875 17.26953125 Z M-28.14453125 23.26953125 C-25.14714184 25.26779086 -24.51105617 25.54503523 -21.14453125 25.51953125 C-20.46390625 25.5246875 -19.78328125 25.52984375 -19.08203125 25.53515625 C-16.82037118 25.36870728 -16.82037118 25.36870728 -14.14453125 23.26953125 C-18.72195176 20.21791758 -23.47116697 20.27857811 -28.14453125 23.26953125 Z M2.91796875 22.76953125 C2.56734375 23.26453125 2.21671875 23.75953125 1.85546875 24.26953125 C5.77843308 25.57718603 8.71549308 25.46667295 12.85546875 25.26953125 C13.51546875 24.60953125 14.17546875 23.94953125 14.85546875 23.26953125 C10.98985559 20.69245581 6.8353391 19.7367284 2.91796875 22.76953125 Z M-49.14453125 22.26953125 C-49.59942757 27.296302 -49.59942757 27.296302 -47.39453125 31.64453125 C-45.21673297 33.21738557 -43.77814381 33.89330088 -41.14453125 34.26953125 C-40.8061541 30.24038 -40.8061541 30.24038 -41.14453125 26.26953125 C-43.30973625 23.66959022 -43.30973625 23.66959022 -46.14453125 22.26953125 C-47.13453125 22.26953125 -48.12453125 22.26953125 -49.14453125 22.26953125 Z M27.85546875 25.26953125 C27.85546875 28.23953125 27.85546875 31.20953125 27.85546875 34.26953125 C31.50863546 33.01976369 32.63612711 32.59854372 34.85546875 29.26953125 C34.93451939 26.93753737 34.94345644 24.60120503 34.85546875 22.26953125 C32.48325888 22.26953125 29.92669142 24.21188563 27.85546875 25.26953125 Z M-37.14453125 26.26953125 C-37.76130478 32.18088313 -37.76130478 32.18088313 -34.89453125 37.14453125 C-31.43970825 39.8141672 -29.53969656 41.26953125 -25.14453125 41.26953125 C-24.80863229 35.98318816 -24.80863229 35.98318816 -26.08203125 30.95703125 C-29.32983919 28.29973384 -33.14287879 27.37690677 -37.14453125 26.26953125 Z M-13.14453125 29.26953125 C-9.36817872 31.7870996 -6.58087567 31.90725576 -2.14453125 31.26953125 C-0.13528625 29.93594131 -0.13528625 29.93594131 0.85546875 28.26953125 C-1.78893764 27.38806245 -3.42513877 27.10778307 -6.14453125 27.08203125 C-7.16546875 27.06076172 -7.16546875 27.06076172 -8.20703125 27.0390625 C-10.47067257 27.16012714 -10.47067257 27.16012714 -13.14453125 29.26953125 Z M15.73046875 29.14453125 C14.67472656 29.66660156 14.67472656 29.66660156 13.59765625 30.19921875 C11.69033057 31.15980699 11.69033057 31.15980699 10.85546875 33.26953125 C10.78596334 34.80977121 10.77094518 36.35288113 10.79296875 37.89453125 C10.80199219 38.71179687 10.81101563 39.5290625 10.8203125 40.37109375 C10.83191406 40.99757813 10.84351563 41.6240625 10.85546875 42.26953125 C12.29669488 41.67430788 13.73332743 41.06795506 15.16796875 40.45703125 C15.96847656 40.12058594 16.76898438 39.78414062 17.59375 39.4375 C19.89364568 38.24981639 21.30452429 37.33745719 22.85546875 35.26953125 C23.21613185 33.21589519 23.21613185 33.21589519 23.04296875 31.08203125 C22.98109375 29.82390625 22.91921875 28.56578125 22.85546875 27.26953125 C19.71699566 27.26953125 18.47087872 27.75915794 15.73046875 29.14453125 Z M-21.14453125 33.26953125 C-21.18578125 34.50703125 -21.22703125 35.74453125 -21.26953125 37.01953125 C-21.29273437 37.715625 -21.3159375 38.41171875 -21.33984375 39.12890625 C-21.10380171 41.71592695 -20.6391447 43.13436918 -19.14453125 45.26953125 C-16.75610708 46.61100667 -16.75610708 46.61100667 -14.01953125 47.51953125 C-13.10945313 47.8546875 -12.199375 48.18984375 -11.26171875 48.53515625 C-10.56304687 48.7775 -9.864375 49.01984375 -9.14453125 49.26953125 C-8.51117781 42.68393241 -8.51117781 42.68393241 -10.83203125 36.76953125 C-14.31492055 34.51035981 -16.9620602 33.26953125 -21.14453125 33.26953125 Z M0.29296875 35.14453125 C-0.51269531 35.49257813 -1.31835938 35.840625 -2.1484375 36.19921875 C-4.30415377 37.10800511 -4.30415377 37.10800511 -5.14453125 39.26953125 C-5.21449139 40.9765586 -5.22893279 42.68621128 -5.20703125 44.39453125 C-5.19800781 45.30460937 -5.18898437 46.2146875 -5.1796875 47.15234375 C-5.16808594 47.85101563 -5.15648437 48.5496875 -5.14453125 49.26953125 C-1.10118311 48.04712367 2.36186072 46.66514819 5.85546875 44.26953125 C7.05819694 41.86407487 6.95618347 40.31956172 6.91796875 37.64453125 C6.90894531 36.82726563 6.89992188 36.01 6.890625 35.16796875 C6.87902344 34.54148438 6.86742187 33.915 6.85546875 33.26953125 C4.29008396 33.26953125 2.63844988 34.11297133 0.29296875 35.14453125 Z M26.29296875 40.39453125 C24.27817744 43.02251991 24.64075382 45.04880731 24.85546875 48.26953125 C27.37805936 46.2953299 27.84844955 45.30207483 28.54296875 42.08203125 C28.64609375 41.15390625 28.74921875 40.22578125 28.85546875 39.26953125 C27.66983027 39.17214713 27.66983027 39.17214713 26.29296875 40.39453125 Z M-46.14453125 43.26953125 C-46.14453125 47.22953125 -46.14453125 51.18953125 -46.14453125 55.26953125 C-44.92765625 55.76453125 -43.71078125 56.25953125 -42.45703125 56.76953125 C-41.77253906 57.04796875 -41.08804688 57.32640625 -40.3828125 57.61328125 C-37.87704903 58.34795536 -35.74229202 58.37871909 -33.14453125 58.26953125 C-33.06331201 56.66620334 -33.00523991 55.06169099 -32.95703125 53.45703125 C-32.92222656 52.56371094 -32.88742188 51.67039062 -32.8515625 50.75 C-32.95213046 48.26395254 -32.95213046 48.26395254 -34.33203125 46.51953125 C-36.63757199 44.92950315 -38.57853098 44.54690792 -41.33203125 44.08203125 C-42.92015625 43.81390625 -44.50828125 43.54578125 -46.14453125 43.26953125 Z M19.85546875 44.26953125 C17.07904675 48.04546517 16.53112553 50.62061171 16.85546875 55.26953125 C20.02556347 53.64874463 20.02556347 53.64874463 20.3671875 51.10546875 C20.42519531 50.29335938 20.48320313 49.48125 20.54296875 48.64453125 C20.64158203 47.41863281 20.64158203 47.41863281 20.7421875 46.16796875 C20.79826172 45.22824219 20.79826172 45.22824219 20.85546875 44.26953125 C20.52546875 44.26953125 20.19546875 44.26953125 19.85546875 44.26953125 Z M-28.14453125 47.26953125 C-28.19842212 49.22756632 -28.23727342 51.18602034 -28.26953125 53.14453125 C-28.29273437 54.23507813 -28.3159375 55.325625 -28.33984375 56.44921875 C-28.44513659 59.40663635 -28.44513659 59.40663635 -26.14453125 61.26953125 C-22.25332151 62.56660116 -19.26646807 63.26953125 -15.14453125 63.26953125 C-15.11754936 61.64462171 -15.09814368 60.01958492 -15.08203125 58.39453125 C-15.07042969 57.48960938 -15.05882812 56.5846875 -15.046875 55.65234375 C-14.98203868 53.25267275 -14.98203868 53.25267275 -16.14453125 51.26953125 C-18.68050072 50.13381701 -18.68050072 50.13381701 -21.64453125 49.14453125 C-22.64484375 48.79132812 -23.64515625 48.438125 -24.67578125 48.07421875 C-26.87022865 47.21788086 -26.87022865 47.21788086 -28.14453125 47.26953125 Z M9.29296875 52.51953125 C6.17695788 56.31293578 6.76445453 60.53679169 6.85546875 65.26953125 C9.58824096 63.0973277 11.5843579 61.4112516 12.41015625 57.93359375 C12.64196897 55.70678673 12.80183887 53.50736007 12.85546875 51.26953125 C10.7822623 51.06129957 10.7822623 51.06129957 9.29296875 52.51953125 Z M27.85546875 52.26953125 C25.38086521 55.7339762 24.49063245 58.01310773 24.85546875 62.26953125 C27.65275955 60.20196848 27.88239148 59.12512754 28.54296875 55.58203125 C28.64609375 54.48890625 28.74921875 53.39578125 28.85546875 52.26953125 C28.52546875 52.26953125 28.19546875 52.26953125 27.85546875 52.26953125 Z M-11.14453125 54.26953125 C-11.20640625 55.50703125 -11.26828125 56.74453125 -11.33203125 58.01953125 C-11.36683594 58.715625 -11.40164062 59.41171875 -11.4375 60.12890625 C-11.04611237 62.98864522 -10.17533808 64.22995203 -8.14453125 66.26953125 C-5.69845729 67.21210775 -5.69845729 67.21210775 -3.01953125 67.58203125 C-2.13007812 67.74316406 -1.240625 67.90429688 -0.32421875 68.0703125 C0.75472656 68.16892578 0.75472656 68.16892578 1.85546875 68.26953125 C3.51200561 66.61299439 3.0265304 64.66302329 3.04296875 62.39453125 C3.05714844 61.51023437 3.07132813 60.6259375 3.0859375 59.71484375 C3.02615299 57.01186399 3.02615299 57.01186399 0.85546875 54.26953125 C-2.04061524 53.90455091 -2.04061524 53.90455091 -5.26953125 54.08203125 C-6.36523438 54.10910156 -7.4609375 54.13617188 -8.58984375 54.1640625 C-9.85441406 54.21626953 -9.85441406 54.21626953 -11.14453125 54.26953125 Z M19.85546875 60.26953125 C17.70240918 64.12709632 16.46293621 66.8208291 16.85546875 71.26953125 C18.88981465 69.8543341 19.75957268 68.71971002 20.27734375 66.2890625 C20.51820827 64.28776171 20.69079616 62.27853685 20.85546875 60.26953125 C20.52546875 60.26953125 20.19546875 60.26953125 19.85546875 60.26953125 Z M-46.14453125 61.26953125 C-46.14453125 65.22953125 -46.14453125 69.18953125 -46.14453125 73.26953125 C-44.90703125 73.74390625 -43.66953125 74.21828125 -42.39453125 74.70703125 C-41.6984375 74.97386719 -41.00234375 75.24070312 -40.28515625 75.515625 C-38.24206141 76.23518213 -36.27364632 76.86685079 -34.14453125 77.26953125 C-32.48799439 75.61299439 -32.9734696 73.66302329 -32.95703125 71.39453125 C-32.94285156 70.51023437 -32.92867187 69.6259375 -32.9140625 68.71484375 C-32.97384701 66.01186399 -32.97384701 66.01186399 -35.14453125 63.26953125 C-37.79144793 62.46860871 -37.79144793 62.46860871 -40.76953125 62.08203125 C-42.54328125 61.81390625 -44.31703125 61.54578125 -46.14453125 61.26953125 Z M-28.14453125 65.26953125 C-28.14453125 69.55953125 -28.14453125 73.84953125 -28.14453125 78.26953125 C-26.92765625 78.76453125 -25.71078125 79.25953125 -24.45703125 79.76953125 C-23.77253906 80.04796875 -23.08804688 80.32640625 -22.3828125 80.61328125 C-19.87704903 81.34795536 -17.74229202 81.37871909 -15.14453125 81.26953125 C-15.09036937 79.66573784 -15.05166487 78.06141719 -15.01953125 76.45703125 C-14.99632812 75.56371094 -14.973125 74.67039062 -14.94921875 73.75 C-14.96167298 71.01550411 -14.96167298 71.01550411 -17.14453125 68.26953125 C-19.78500377 67.2520057 -19.78500377 67.2520057 -22.76953125 66.58203125 C-24.54328125 66.14890625 -26.31703125 65.71578125 -28.14453125 65.26953125 Z M9.79296875 69.70703125 C6.98040374 73.4268753 7.50857095 76.75985981 7.85546875 81.26953125 C10.31860614 79.44204222 11.68975493 78.03976909 12.34375 75 C12.58065168 72.75473779 12.75908224 70.52497547 12.85546875 68.26953125 C11.57319792 68.17423247 11.57319792 68.17423247 9.79296875 69.70703125 Z M-10.14453125 70.26953125 C-10.14453125 74.55953125 -10.14453125 78.84953125 -10.14453125 83.26953125 C-8.74203125 83.78515625 -7.33953125 84.30078125 -5.89453125 84.83203125 C-5.105625 85.12207031 -4.31671875 85.41210938 -3.50390625 85.7109375 C-0.95349673 86.31475962 0.40869104 86.11692445 2.85546875 85.26953125 C3.38774932 79.30478474 3.38774932 79.30478474 1.41796875 73.83203125 C-2.30757797 71.56035642 -5.8526369 71.02692437 -10.14453125 70.26953125 Z " fill="#000000" transform="translate(57.14453125,4.73046875)"/>
</svg>
